<?xml version="1.0" encoding="UTF-8" standalone="no"?>
<!DOCTYPE svg PUBLIC "-//W3C//DTD SVG 1.1//EN"
 "http://www.w3.org/Graphics/SVG/1.1/DTD/svg11.dtd">
<!-- Generated by graphviz version 2.43.0 (0)
 -->
<!-- Title: uuid/uuid.c Pages: 1 -->
<svg width="929pt" height="140pt"
 viewBox="0.00 0.00 929.00 140.00" xmlns="http://www.w3.org/2000/svg" xmlns:xlink="http://www.w3.org/1999/xlink">
<g id="graph0" class="graph" transform="scale(1 1) rotate(0) translate(4 136)">
<title>uuid/uuid.c</title>
<!-- Node1 -->
<g id="node1" class="node">
<title>Node1</title>
<g id="a_node1"><a xlink:title="Implementation of the UUID generation library.">
<polygon fill="#bfbfbf" stroke="black" points="394.5,-112.5 394.5,-131.5 464.5,-131.5 464.5,-112.5 394.5,-112.5"/>
<text text-anchor="middle" x="429.5" y="-119.5" font-family="Helvetica,sans-Serif" font-size="10.00">uuid/uuid.c</text>
</a>
</g>
</g>
<!-- Node2 -->
<g id="node2" class="node">
<title>Node2</title>
<g id="a_node2"><a xlink:href="uuid_8h.html" target="_top" xlink:title="Public include header for the UUID generation library.">
<polygon fill="none" stroke="black" points="39,-56.5 39,-75.5 86,-75.5 86,-56.5 39,-56.5"/>
<text text-anchor="middle" x="62.5" y="-63.5" font-family="Helvetica,sans-Serif" font-size="10.00">uuid.h</text>
</a>
</g>
</g>
<!-- Node1&#45;&gt;Node2 -->
<g id="edge1" class="edge">
<title>Node1&#45;&gt;Node2</title>
<path fill="none" stroke="midnightblue" d="M394.14,-117.79C334.63,-112.05 210.59,-98.65 96.18,-75.88"/>
<polygon fill="midnightblue" stroke="midnightblue" points="96.7,-72.42 86.2,-73.87 95.31,-79.28 96.7,-72.42"/>
</g>
<!-- Node5 -->
<g id="node5" class="node">
<title>Node5</title>
<g id="a_node5"><a xlink:title=" ">
<polygon fill="none" stroke="#bfbfbf" points="104,-56.5 104,-75.5 157,-75.5 157,-56.5 104,-56.5"/>
<text text-anchor="middle" x="130.5" y="-63.5" font-family="Helvetica,sans-Serif" font-size="10.00">string.h</text>
</a>
</g>
</g>
<!-- Node1&#45;&gt;Node5 -->
<g id="edge4" class="edge">
<title>Node1&#45;&gt;Node5</title>
<path fill="none" stroke="midnightblue" d="M394.46,-115.87C345.72,-108.54 254.54,-94.15 167.01,-75.97"/>
<polygon fill="midnightblue" stroke="midnightblue" points="167.69,-72.54 157.18,-73.91 166.25,-79.39 167.69,-72.54"/>
</g>
<!-- Node6 -->
<g id="node6" class="node">
<title>Node6</title>
<g id="a_node6"><a xlink:title=" ">
<polygon fill="none" stroke="#bfbfbf" points="175.5,-56.5 175.5,-75.5 279.5,-75.5 279.5,-56.5 175.5,-56.5"/>
<text text-anchor="middle" x="227.5" y="-63.5" font-family="Helvetica,sans-Serif" font-size="10.00">ucdm/descriptor.h</text>
</a>
</g>
</g>
<!-- Node1&#45;&gt;Node6 -->
<g id="edge5" class="edge">
<title>Node1&#45;&gt;Node6</title>
<path fill="none" stroke="midnightblue" d="M397.49,-112.44C362.77,-103.16 307.21,-88.31 269.12,-78.13"/>
<polygon fill="midnightblue" stroke="midnightblue" points="269.92,-74.72 259.36,-75.52 268.11,-81.48 269.92,-74.72"/>
</g>
<!-- Node7 -->
<g id="node7" class="node">
<title>Node7</title>
<g id="a_node7"><a xlink:title=" ">
<polygon fill="none" stroke="#bfbfbf" points="297.5,-56.5 297.5,-75.5 377.5,-75.5 377.5,-56.5 297.5,-56.5"/>
<text text-anchor="middle" x="337.5" y="-63.5" font-family="Helvetica,sans-Serif" font-size="10.00">printf/printf.h</text>
</a>
</g>
</g>
<!-- Node1&#45;&gt;Node7 -->
<g id="edge6" class="edge">
<title>Node1&#45;&gt;Node7</title>
<path fill="none" stroke="midnightblue" d="M414.72,-112.32C400.23,-103.82 377.93,-90.73 361.01,-80.8"/>
<polygon fill="midnightblue" stroke="midnightblue" points="362.64,-77.7 352.24,-75.65 359.1,-83.74 362.64,-77.7"/>
</g>
<!-- Node8 -->
<g id="node8" class="node">
<title>Node8</title>
<g id="a_node8"><a xlink:title=" ">
<polygon fill="none" stroke="#bfbfbf" points="396,-56.5 396,-75.5 463,-75.5 463,-56.5 396,-56.5"/>
<text text-anchor="middle" x="429.5" y="-63.5" font-family="Helvetica,sans-Serif" font-size="10.00">hal/uc/id.h</text>
</a>
</g>
</g>
<!-- Node1&#45;&gt;Node8 -->
<g id="edge7" class="edge">
<title>Node1&#45;&gt;Node8</title>
<path fill="none" stroke="midnightblue" d="M429.5,-112.08C429.5,-105.01 429.5,-94.86 429.5,-85.99"/>
<polygon fill="midnightblue" stroke="midnightblue" points="433,-85.75 429.5,-75.75 426,-85.75 433,-85.75"/>
</g>
<!-- Node9 -->
<g id="node9" class="node">
<title>Node9</title>
<g id="a_node9"><a xlink:title=" ">
<polygon fill="none" stroke="#bfbfbf" points="481.5,-56.5 481.5,-75.5 553.5,-75.5 553.5,-56.5 481.5,-56.5"/>
<text text-anchor="middle" x="517.5" y="-63.5" font-family="Helvetica,sans-Serif" font-size="10.00">rand/rand.h</text>
</a>
</g>
</g>
<!-- Node1&#45;&gt;Node9 -->
<g id="edge8" class="edge">
<title>Node1&#45;&gt;Node9</title>
<path fill="none" stroke="midnightblue" d="M443.64,-112.32C457.37,-103.9 478.44,-90.97 494.56,-81.07"/>
<polygon fill="midnightblue" stroke="midnightblue" points="496.7,-83.87 503.4,-75.65 493.04,-77.9 496.7,-83.87"/>
</g>
<!-- Node10 -->
<g id="node10" class="node">
<title>Node10</title>
<g id="a_node10"><a xlink:title=" ">
<polygon fill="none" stroke="#bfbfbf" points="571.5,-56.5 571.5,-75.5 645.5,-75.5 645.5,-56.5 571.5,-56.5"/>
<text text-anchor="middle" x="608.5" y="-63.5" font-family="Helvetica,sans-Serif" font-size="10.00">time/time.h</text>
</a>
</g>
</g>
<!-- Node1&#45;&gt;Node10 -->
<g id="edge9" class="edge">
<title>Node1&#45;&gt;Node10</title>
<path fill="none" stroke="midnightblue" d="M457.86,-112.44C488.24,-103.28 536.61,-88.69 570.32,-78.52"/>
<polygon fill="midnightblue" stroke="midnightblue" points="571.71,-81.76 580.27,-75.52 569.68,-75.05 571.71,-81.76"/>
</g>
<!-- Node11 -->
<g id="node11" class="node">
<title>Node11</title>
<g id="a_node11"><a xlink:title=" ">
<polygon fill="none" stroke="#bfbfbf" points="663.5,-56.5 663.5,-75.5 781.5,-75.5 781.5,-56.5 663.5,-56.5"/>
<text text-anchor="middle" x="722.5" y="-63.5" font-family="Helvetica,sans-Serif" font-size="10.00">cryptolib/md5/md5.h</text>
</a>
</g>
</g>
<!-- Node1&#45;&gt;Node11 -->
<g id="edge10" class="edge">
<title>Node1&#45;&gt;Node11</title>
<path fill="none" stroke="midnightblue" d="M464.55,-114.54C514.52,-105.33 606.77,-88.33 666.33,-77.35"/>
<polygon fill="midnightblue" stroke="midnightblue" points="667.13,-80.76 676.33,-75.51 665.86,-73.88 667.13,-80.76"/>
</g>
<!-- Node12 -->
<g id="node12" class="node">
<title>Node12</title>
<g id="a_node12"><a xlink:title=" ">
<polygon fill="none" stroke="#bfbfbf" points="800,-56.5 800,-75.5 921,-75.5 921,-56.5 800,-56.5"/>
<text text-anchor="middle" x="860.5" y="-63.5" font-family="Helvetica,sans-Serif" font-size="10.00">cryptolib/sha1/sha1.h</text>
</a>
</g>
</g>
<!-- Node1&#45;&gt;Node12 -->
<g id="edge11" class="edge">
<title>Node1&#45;&gt;Node12</title>
<path fill="none" stroke="midnightblue" d="M464.61,-116.67C527.44,-108.91 663.55,-92.05 789.58,-76.11"/>
<polygon fill="midnightblue" stroke="midnightblue" points="790.31,-79.55 799.8,-74.82 789.44,-72.6 790.31,-79.55"/>
</g>
<!-- Node3 -->
<g id="node3" class="node">
<title>Node3</title>
<g id="a_node3"><a xlink:title=" ">
<polygon fill="none" stroke="#bfbfbf" points="0,-0.5 0,-19.5 53,-19.5 53,-0.5 0,-0.5"/>
<text text-anchor="middle" x="26.5" y="-7.5" font-family="Helvetica,sans-Serif" font-size="10.00">stdint.h</text>
</a>
</g>
</g>
<!-- Node2&#45;&gt;Node3 -->
<g id="edge2" class="edge">
<title>Node2&#45;&gt;Node3</title>
<path fill="none" stroke="midnightblue" d="M56.56,-56.08C51.52,-48.53 44.16,-37.49 37.99,-28.23"/>
<polygon fill="midnightblue" stroke="midnightblue" points="40.79,-26.13 32.33,-19.75 34.97,-30.01 40.79,-26.13"/>
</g>
<!-- Node4 -->
<g id="node4" class="node">
<title>Node4</title>
<g id="a_node4"><a xlink:href="config_8h_source.html" target="_top" xlink:title=" ">
<polygon fill="none" stroke="black" points="71,-0.5 71,-19.5 126,-19.5 126,-0.5 71,-0.5"/>
<text text-anchor="middle" x="98.5" y="-7.5" font-family="Helvetica,sans-Serif" font-size="10.00">config.h</text>
</a>
</g>
</g>
<!-- Node2&#45;&gt;Node4 -->
<g id="edge3" class="edge">
<title>Node2&#45;&gt;Node4</title>
<path fill="none" stroke="midnightblue" d="M68.44,-56.08C73.48,-48.53 80.84,-37.49 87.01,-28.23"/>
<polygon fill="midnightblue" stroke="midnightblue" points="90.03,-30.01 92.67,-19.75 84.21,-26.13 90.03,-30.01"/>
</g>
</g>
</svg>
